<?xml version="1.0" encoding="utf-8"?>
<!-- Generator: Adobe Illustrator 22.0.0, SVG Export Plug-In . SVG Version: 6.00 Build 0)  -->
<svg version="1.1" id="Layer_1" xmlns="http://www.w3.org/2000/svg" xmlns:xlink="http://www.w3.org/1999/xlink" x="0px" y="0px"
	 viewBox="0 0 206.7 127.6" style="enable-background:new 0 0 206.7 127.6;" xml:space="preserve">
<style type="text/css">
	.st0{enable-background:new    ;}
	.st1{fill:#FFFFFF;}
</style>
<g>
	<g>
		<g class="st0">
			<path class="st1" d="M47.5,36.7c0.6,0,1,0.1,1.4,0.4c0.4,0.2,0.6,0.6,0.6,1.1c0,0.6-0.4,1.1-1,1.6c-0.7,0.4-1.5,0.8-2.2,1
				c-2.9,0.8-5.6,1.4-8.2,1.7c-0.6,6-1.5,12.1-2.8,18.3s-2.9,12.8-4.8,19.8c3.8-0.1,6.6-0.2,8.4-0.4c1.3-0.1,2,0.2,2,1
				c0,0.6-0.3,1.2-1,1.9c-0.7,0.7-1.4,1-2.2,1.1c-5.6,0.7-10.8,1.1-15.7,1.1c-2.7,0-5.3-0.1-7.9-0.4c-0.9-0.1-1.3-0.4-1.3-0.7
				c0-0.5,0.6-1.1,1.7-1.8s2-1.1,2.5-1.1c2.3-0.3,4.7-0.5,7.2-0.5c1.9-7.4,3.5-14.1,4.7-20.1S31,48.8,31.6,43
				c-3.2,0.1-6-0.1-8.5-0.5c-0.8-0.2-1.3-0.4-1.3-0.8c0-0.5,0.5-1.1,1.7-1.8c1.1-0.7,1.9-1,2.5-1.1c2.2-0.2,4.4-0.3,6.5-0.4l3.3-0.2
				h0.4c4.1-0.2,7.5-0.7,10.2-1.4C46.8,36.7,47.1,36.7,47.5,36.7z"/>
			<path class="st1" d="M75.1,54.3c0,1-0.1,2.2-0.3,3.5c-0.2,1.3-0.4,2.5-0.7,3.6l-0.4,2.4l-2.5,18.7c0.8,0.2,1.1,0.7,1,1.5
				c-0.4,2.2-2,3.6-4.7,4.2l-0.6,0.1c-0.7,0-1.3-0.1-1.8-0.4s-0.7-0.7-0.7-1.3c1.7-12.2,2.9-21.3,3.7-27.4c0-0.2,0.1-0.6,0.3-1.4
				c0.1-0.8,0.2-1.5,0.2-2.2c0-1.3-0.3-1.9-1-2c-0.5-0.1-1.4,0.6-2.6,2.1c-1.2,1.5-1.8,2.3-1.9,2.5c-2.4,2.7-4.6,5.8-6.7,9.1
				c-1,5.8-1.7,10.6-2.3,14.2l-0.3,1.9c-0.1,0.8-0.7,1.4-1.7,2s-2,0.8-2.9,0.8c-0.6,0-1.1-0.1-1.4-0.4c-0.3-0.3-0.5-0.7-0.4-1.2
				c1-6.1,1.9-11.1,2.5-15c-0.2-0.2-0.4-0.5-0.4-0.8c0-0.2,0.1-0.4,0.2-0.7c0.1-0.2,0.2-0.4,0.3-0.5c0.1-0.2,0.2-0.3,0.3-0.4
				l2.4-14.5c0.1-0.7,0.7-1.3,1.6-1.9c1-0.5,1.9-0.8,2.9-0.8c0.6,0,1.1,0.1,1.4,0.4c0.3,0.2,0.4,0.6,0.4,1.1c-0.2,1.3-0.5,3-0.8,5.1
				l2.5-2.7c1.7-1.7,3.3-3.1,4.8-4.1c1.5-1.1,3.1-1.6,4.6-1.6c1,0,1.9,0.2,2.6,0.7C74.3,49.6,75.1,51.5,75.1,54.3z"/>
			<path class="st1" d="M87.1,61c0.8,1.2,1.7,2.1,2.9,2.9c1.1,0.8,2.6,1.7,4.6,2.8c2.6,1.5,4.6,2.8,6,4s2.3,2.7,2.7,4.5
				c0.2,0.8,0.2,1.4,0.2,1.7c0,2.8-1.5,4.8-4.4,6c-3,1.2-6.3,1.8-10.1,1.8c-1.5,0-2.8-0.1-3.9-0.3c-1.3-0.2-2.7-0.7-4.1-1.4
				c-1.4-0.7-2.6-1.6-3.5-2.6s-1.4-2.1-1.4-3.1c0-1.7,1.3-3.2,3.9-4.6c0.7-0.4,1.4-0.5,2.1-0.5c0.6,0,1.2,0.1,1.6,0.4s0.6,0.6,0.6,1
				c0,0.7-0.6,1.4-1.7,2.1c-0.2,0.1-0.4,0.3-0.4,0.5c0,0.5,0.4,1.1,1.1,1.7c0.8,0.7,1.4,1.1,1.8,1.4c1.2,0.7,3.1,1.1,5.8,1.3
				c0.3,0,0.9,0.1,1.7,0.1c1.4,0,2.6-0.2,3.5-0.7s1.3-1.4,1.1-2.6c-0.2-1.7-1.9-3.7-5.2-5.8l-2.3-1.4c-2.1-1.3-3.8-2.4-5.1-3.4
				c-1.3-1-2.5-2.2-3.4-3.5s-1.4-2.9-1.4-4.7c0-1.1,0.2-2.2,0.6-3.2c0.9-2.6,2.5-4.6,4.9-6s5-2.1,7.7-2.1c2.8,0,5.2,0.7,7.2,2.2
				c1.9,1.4,2.9,3.5,2.9,6.1c0,0.8-0.1,1.7-0.4,2.7c-0.2,0.7-0.8,1.3-1.8,1.9c-1,0.5-2,0.8-2.9,0.8c-0.6,0-1-0.1-1.3-0.4
				s-0.4-0.6-0.2-1c0.2-0.8,0.4-1.7,0.4-2.5c0-1.3-0.3-2.4-1-3.4c-0.7-0.9-1.7-1.6-3-1.9c-0.7-0.2-1.3-0.2-1.6-0.2
				c-1.4,0-2.7,0.5-3.6,1.5c-1,1-1.5,2.4-1.5,4.1C85.9,58.5,86.3,59.8,87.1,61z"/>
			<path class="st1" d="M123.9,52.4c2,2,3.6,4.3,4.7,6.9c1.1,2.6,1.7,5.2,1.7,7.8c0,1.4-0.2,2.8-0.5,4.1c-0.8,2.8-1.9,5.2-3.5,7.4
				c-1.5,2.2-3.4,3.9-5.5,5.2c-2.1,1.3-4.4,1.9-6.9,1.9c-0.8,0-1.5-0.1-2.3-0.2c-1.6,10.2-3,18.6-4.3,25.1c-0.2,0.8-0.7,1.4-1.7,1.9
				s-1.9,0.8-2.9,0.8c-0.7,0-1.2-0.1-1.6-0.4s-0.5-0.7-0.4-1.3c2-9.9,3.7-19.4,5.2-28.4l-0.1-0.1c-0.5-0.4-0.8-0.8-0.8-1.2
				c0-0.7,0.5-1.3,1.4-1.9c1.3-7.4,2.7-16.9,4.3-28.5l-0.8,0.1l-0.7,0.1c-0.7,0-1.2-0.1-1.5-0.4c-0.3-0.2-0.5-0.5-0.5-0.9
				c0-0.6,0.3-1.2,0.9-1.7c0.6-0.6,1.3-0.9,2.2-1.1c0.7-0.1,1.4-0.2,2.2-0.2c0.5,0,1.2,0,2.1,0.1c1.3-0.2,2.1,0.1,2.5,0.7
				C119.7,49.1,121.9,50.5,123.9,52.4z M124.4,67.7c0-3.2-1.2-6.3-3.6-9.4c-1.4-1.8-2.8-3.2-4.3-4.3c-1.2,7.5-2.1,13.5-2.8,18.1
				c-0.3,1.9-0.8,4.7-1.3,8.5c1.2,0.6,2.3,0.8,3.3,0.8c1.7,0,3.2-0.8,4.6-2.5c1-1.2,1.8-2.6,2.5-4.1c0.7-1.6,1.2-3.2,1.4-4.8
				C124.4,69.4,124.4,68.6,124.4,67.7z"/>
			<path class="st1" d="M139.6,62.7c-0.2,1.6-0.7,4.5-1.3,8.7c-0.7,4.2-1.2,8-1.7,11.4c-0.1,0.8-0.7,1.4-1.6,2
				c-0.9,0.5-1.9,0.8-2.9,0.8c-0.6,0-1.1-0.1-1.5-0.4c-0.3-0.3-0.5-0.7-0.4-1.2c0.7-4,1.4-8.6,2.2-13.7s1.3-8.8,1.7-11l1.3-8.2
				c0.1-0.7,0.7-1.3,1.7-1.9c1-0.5,1.9-0.8,2.8-0.8c0.6,0,1,0.1,1.3,0.4c0.3,0.2,0.4,0.6,0.4,1L139.6,62.7z M140.6,38.5
				c-0.9,0-1.7,0.2-2.3,0.7c-0.9,0.5-1.4,1-1.5,1.4c-0.5,1.9-0.9,3.1-1,3.7v0.2c0,0.2,0.1,0.4,0.2,0.6c0.2,0.2,0.3,0.3,0.5,0.4
				c0.3,0.2,0.7,0.2,1.1,0.2c0.6,0,1.4-0.2,2.3-0.6c0.9-0.4,1.5-0.9,1.8-1.6c0.2-0.7,0.6-1.9,1-3.6v-0.1c0-0.2-0.1-0.4-0.2-0.6
				c-0.2-0.2-0.3-0.4-0.5-0.5C141.5,38.6,141,38.5,140.6,38.5z"/>
			<path class="st1" d="M162.3,47.3c1,0,1.9,0.3,2.5,0.8s1,1.4,1,2.6c0,1.2-0.2,2.4-0.5,3.8c-0.4,1.4-0.9,3-1.5,4.8l-0.8,2.5
				c-0.2,0.8-0.9,1.4-1.9,1.9s-2,0.8-2.9,0.8c-0.6,0-1-0.1-1.3-0.4c-0.3-0.3-0.4-0.6-0.2-1.2c0.7-2.2,1.4-4.7,2.2-7.4
				c0.2-1.2,0.3-2.1,0.4-2.5l-0.2,0.2c-3.1,2.6-5.9,6-8.5,10c-1.2,6.4-1.9,12.7-2.2,19.1c0,0.8-0.5,1.4-1.5,2s-2,0.9-3,0.9
				c-0.6,0-1.1-0.1-1.5-0.4s-0.6-0.7-0.5-1.3c0.3-5.8,0.9-11.4,1.9-16.8c-0.4-0.3-0.6-0.6-0.6-1c0-0.2,0.1-0.5,0.2-0.8l0.9-1.5
				c0.9-4.6,2-9.2,3.2-13.9c0.2-0.7,0.8-1.3,1.9-1.9c1.1-0.5,2.1-0.8,3-0.8c0.6,0,1.1,0.1,1.4,0.4c0.3,0.2,0.4,0.6,0.2,1.1
				c-0.6,2.2-1,3.7-1.2,4.4c2.4-2.4,4.6-4,6.5-4.9C160.3,47.5,161.3,47.3,162.3,47.3z"/>
			<path class="st1" d="M182.8,48.6c3.8,0,7.3,2.6,10.4,7.7c0.1,0.2,0.2,0.4,0.2,0.6c0,0.4-0.3,0.9-0.8,1.4c-0.4,0.5-1,0.9-1.7,1.1
				c-4,1.8-9.6,3.9-16.7,6.3c-0.4,2-0.6,4.1-0.6,6.3c0,1,0,1.7,0.1,2.2c0.1,1.8,0.4,3.4,1.1,4.7c0.2,0.4,0.5,0.9,0.9,1.3
				s0.7,0.7,0.9,0.8c0.1,0.1,0.3,0.1,0.6,0.1s0.6-0.1,1-0.2c0.4-0.2,0.8-0.4,1.3-0.7c1.2-0.7,2.2-1.5,3.2-2.3c1-0.9,2.2-2,3.6-3.4
				c0.6-0.6,1.5-0.8,2.8-0.8c0.7,0,1.3,0.1,1.8,0.3c0.5,0.2,0.8,0.5,0.8,0.9s-0.2,0.8-0.6,1.2c-2.5,2.7-5,5-7.6,6.8
				c-2.6,1.9-5.2,2.8-7.8,2.8c-1.2,0-2.4-0.3-3.5-0.8c-1.8-0.8-3.1-2.2-3.9-4c-0.8-1.8-1.2-4-1.2-6.5c0-1.8,0.2-4,0.7-6.5l-0.5,0.1
				l-0.5,0.2c-0.6,0.2-1.1,0.3-1.4,0.3c-0.6,0-1-0.1-1.3-0.4s-0.5-0.6-0.5-1.1s0.2-1,0.6-1.5c0.4-0.5,1-0.9,1.9-1.2l2.9-1.1
				c0.4-1.1,0.9-2.6,1.6-4.4c1.1-2.5,2.5-4.6,4.2-6.4s3.7-3,5.9-3.5C181.4,48.7,182.1,48.6,182.8,48.6z M175.6,60.6
				c3.9-1.5,7.5-2.7,10.6-3.7c-1.3-1.8-2.7-3.1-4-3.7c-0.3-0.1-0.6-0.2-0.8-0.2c-0.3,0-0.4-0.1-0.4-0.1s0,0.1-0.1,0.1
				s-0.2,0.1-0.3,0.1C178.5,54.6,176.8,57.2,175.6,60.6z"/>
		</g>
		<g class="st0">
			<path class="st1" d="M47.5,36.7c0.6,0,1,0.1,1.4,0.4c0.4,0.2,0.6,0.6,0.6,1.1c0,0.6-0.4,1.1-1,1.6c-0.7,0.4-1.5,0.8-2.2,1
				c-2.9,0.8-5.6,1.4-8.2,1.7c-0.6,6-1.5,12.1-2.8,18.3s-2.9,12.8-4.8,19.8c3.8-0.1,6.6-0.2,8.4-0.4c1.3-0.1,2,0.2,2,1
				c0,0.6-0.3,1.2-1,1.9c-0.7,0.7-1.4,1-2.2,1.1c-5.6,0.7-10.8,1.1-15.7,1.1c-2.7,0-5.3-0.1-7.9-0.4c-0.9-0.1-1.3-0.4-1.3-0.7
				c0-0.5,0.6-1.1,1.7-1.8s2-1.1,2.5-1.1c2.3-0.3,4.7-0.5,7.2-0.5c1.9-7.4,3.5-14.1,4.7-20.1S31,48.8,31.6,43
				c-3.2,0.1-6-0.1-8.5-0.5c-0.8-0.2-1.3-0.4-1.3-0.8c0-0.5,0.5-1.1,1.7-1.8c1.1-0.7,1.9-1,2.5-1.1c2.2-0.2,4.4-0.3,6.5-0.4l3.3-0.2
				h0.4c4.1-0.2,7.5-0.7,10.2-1.4C46.8,36.7,47.1,36.7,47.5,36.7z"/>
			<path class="st1" d="M75.1,54.3c0,1-0.1,2.2-0.3,3.5c-0.2,1.3-0.4,2.5-0.7,3.6l-0.4,2.4l-2.5,18.7c0.8,0.2,1.1,0.7,1,1.5
				c-0.4,2.2-2,3.6-4.7,4.2l-0.6,0.1c-0.7,0-1.3-0.1-1.8-0.4s-0.7-0.7-0.7-1.3c1.7-12.2,2.9-21.3,3.7-27.4c0-0.2,0.1-0.6,0.3-1.4
				c0.1-0.8,0.2-1.5,0.2-2.2c0-1.3-0.3-1.9-1-2c-0.5-0.1-1.4,0.6-2.6,2.1c-1.2,1.5-1.8,2.3-1.9,2.5c-2.4,2.7-4.6,5.8-6.7,9.1
				c-1,5.8-1.7,10.6-2.3,14.2l-0.3,1.9c-0.1,0.8-0.7,1.4-1.7,2s-2,0.8-2.9,0.8c-0.6,0-1.1-0.1-1.4-0.4c-0.3-0.3-0.5-0.7-0.4-1.2
				c1-6.1,1.9-11.1,2.5-15c-0.2-0.2-0.4-0.5-0.4-0.8c0-0.2,0.1-0.4,0.2-0.7c0.1-0.2,0.2-0.4,0.3-0.5c0.1-0.2,0.2-0.3,0.3-0.4
				l2.4-14.5c0.1-0.7,0.7-1.3,1.6-1.9c1-0.5,1.9-0.8,2.9-0.8c0.6,0,1.1,0.1,1.4,0.4c0.3,0.2,0.4,0.6,0.4,1.1c-0.2,1.3-0.5,3-0.8,5.1
				l2.5-2.7c1.7-1.7,3.3-3.1,4.8-4.1c1.5-1.1,3.1-1.6,4.6-1.6c1,0,1.9,0.2,2.6,0.7C74.3,49.6,75.1,51.5,75.1,54.3z"/>
			<path class="st1" d="M87.1,61c0.8,1.2,1.7,2.1,2.9,2.9c1.1,0.8,2.6,1.7,4.6,2.8c2.6,1.5,4.6,2.8,6,4s2.3,2.7,2.7,4.5
				c0.2,0.8,0.2,1.4,0.2,1.7c0,2.8-1.5,4.8-4.4,6c-3,1.2-6.3,1.8-10.1,1.8c-1.5,0-2.8-0.1-3.9-0.3c-1.3-0.2-2.7-0.7-4.1-1.4
				c-1.4-0.7-2.6-1.6-3.5-2.6s-1.4-2.1-1.4-3.1c0-1.7,1.3-3.2,3.9-4.6c0.7-0.4,1.4-0.5,2.1-0.5c0.6,0,1.2,0.1,1.6,0.4s0.6,0.6,0.6,1
				c0,0.7-0.6,1.4-1.7,2.1c-0.2,0.1-0.4,0.3-0.4,0.5c0,0.5,0.4,1.1,1.1,1.7c0.8,0.7,1.4,1.1,1.8,1.4c1.2,0.7,3.1,1.1,5.8,1.3
				c0.3,0,0.9,0.1,1.7,0.1c1.4,0,2.6-0.2,3.5-0.7s1.3-1.4,1.1-2.6c-0.2-1.7-1.9-3.7-5.2-5.8l-2.3-1.4c-2.1-1.3-3.8-2.4-5.1-3.4
				c-1.3-1-2.5-2.2-3.4-3.5s-1.4-2.9-1.4-4.7c0-1.1,0.2-2.2,0.6-3.2c0.9-2.6,2.5-4.6,4.9-6s5-2.1,7.7-2.1c2.8,0,5.2,0.7,7.2,2.2
				c1.9,1.4,2.9,3.5,2.9,6.1c0,0.8-0.1,1.7-0.4,2.7c-0.2,0.7-0.8,1.3-1.8,1.9c-1,0.5-2,0.8-2.9,0.8c-0.6,0-1-0.1-1.3-0.4
				s-0.4-0.6-0.2-1c0.2-0.8,0.4-1.7,0.4-2.5c0-1.3-0.3-2.4-1-3.4c-0.7-0.9-1.7-1.6-3-1.9c-0.7-0.2-1.3-0.2-1.6-0.2
				c-1.4,0-2.7,0.5-3.6,1.5c-1,1-1.5,2.4-1.5,4.1C85.9,58.5,86.3,59.8,87.1,61z"/>
			<path class="st1" d="M123.9,52.4c2,2,3.6,4.3,4.7,6.9c1.1,2.6,1.7,5.2,1.7,7.8c0,1.4-0.2,2.8-0.5,4.1c-0.8,2.8-1.9,5.2-3.5,7.4
				c-1.5,2.2-3.4,3.9-5.5,5.2c-2.1,1.3-4.4,1.9-6.9,1.9c-0.8,0-1.5-0.1-2.3-0.2c-1.6,10.2-3,18.6-4.3,25.1c-0.2,0.8-0.7,1.4-1.7,1.9
				s-1.9,0.8-2.9,0.8c-0.7,0-1.2-0.1-1.6-0.4s-0.5-0.7-0.4-1.3c2-9.9,3.7-19.4,5.2-28.4l-0.1-0.1c-0.5-0.4-0.8-0.8-0.8-1.2
				c0-0.7,0.5-1.3,1.4-1.9c1.3-7.4,2.7-16.9,4.3-28.5l-0.8,0.1l-0.7,0.1c-0.7,0-1.2-0.1-1.5-0.4c-0.3-0.2-0.5-0.5-0.5-0.9
				c0-0.6,0.3-1.2,0.9-1.7c0.6-0.6,1.3-0.9,2.2-1.1c0.7-0.1,1.4-0.2,2.2-0.2c0.5,0,1.2,0,2.1,0.1c1.3-0.2,2.1,0.1,2.5,0.7
				C119.7,49.1,121.9,50.5,123.9,52.4z M124.4,67.7c0-3.2-1.2-6.3-3.6-9.4c-1.4-1.8-2.8-3.2-4.3-4.3c-1.2,7.5-2.1,13.5-2.8,18.1
				c-0.3,1.9-0.8,4.7-1.3,8.5c1.2,0.6,2.3,0.8,3.3,0.8c1.7,0,3.2-0.8,4.6-2.5c1-1.2,1.8-2.6,2.5-4.1c0.7-1.6,1.2-3.2,1.4-4.8
				C124.4,69.4,124.4,68.6,124.4,67.7z"/>
			<path class="st1" d="M139.6,62.7c-0.2,1.6-0.7,4.5-1.3,8.7c-0.7,4.2-1.2,8-1.7,11.4c-0.1,0.8-0.7,1.4-1.6,2
				c-0.9,0.5-1.9,0.8-2.9,0.8c-0.6,0-1.1-0.1-1.5-0.4c-0.3-0.3-0.5-0.7-0.4-1.2c0.7-4,1.4-8.6,2.2-13.7s1.3-8.8,1.7-11l1.3-8.2
				c0.1-0.7,0.7-1.3,1.7-1.9c1-0.5,1.9-0.8,2.8-0.8c0.6,0,1,0.1,1.3,0.4c0.3,0.2,0.4,0.6,0.4,1L139.6,62.7z M140.6,38.5
				c-0.9,0-1.7,0.2-2.3,0.7c-0.9,0.5-1.4,1-1.5,1.4c-0.5,1.9-0.9,3.1-1,3.7v0.2c0,0.2,0.1,0.4,0.2,0.6c0.2,0.2,0.3,0.3,0.5,0.4
				c0.3,0.2,0.7,0.2,1.1,0.2c0.6,0,1.4-0.2,2.3-0.6c0.9-0.4,1.5-0.9,1.8-1.6c0.2-0.7,0.6-1.9,1-3.6v-0.1c0-0.2-0.1-0.4-0.2-0.6
				c-0.2-0.2-0.3-0.4-0.5-0.5C141.5,38.6,141,38.5,140.6,38.5z"/>
			<path class="st1" d="M162.3,47.3c1,0,1.9,0.3,2.5,0.8s1,1.4,1,2.6c0,1.2-0.2,2.4-0.5,3.8c-0.4,1.4-0.9,3-1.5,4.8l-0.8,2.5
				c-0.2,0.8-0.9,1.4-1.9,1.9s-2,0.8-2.9,0.8c-0.6,0-1-0.1-1.3-0.4c-0.3-0.3-0.4-0.6-0.2-1.2c0.7-2.2,1.4-4.7,2.2-7.4
				c0.2-1.2,0.3-2.1,0.4-2.5l-0.2,0.2c-3.1,2.6-5.9,6-8.5,10c-1.2,6.4-1.9,12.7-2.2,19.1c0,0.8-0.5,1.4-1.5,2s-2,0.9-3,0.9
				c-0.6,0-1.1-0.1-1.5-0.4s-0.6-0.7-0.5-1.3c0.3-5.8,0.9-11.4,1.9-16.8c-0.4-0.3-0.6-0.6-0.6-1c0-0.2,0.1-0.5,0.2-0.8l0.9-1.5
				c0.9-4.6,2-9.2,3.2-13.9c0.2-0.7,0.8-1.3,1.9-1.9c1.1-0.5,2.1-0.8,3-0.8c0.6,0,1.1,0.1,1.4,0.4c0.3,0.2,0.4,0.6,0.2,1.1
				c-0.6,2.2-1,3.7-1.2,4.4c2.4-2.4,4.6-4,6.5-4.9C160.3,47.5,161.3,47.3,162.3,47.3z"/>
			<path class="st1" d="M182.8,48.6c3.8,0,7.3,2.6,10.4,7.7c0.1,0.2,0.2,0.4,0.2,0.6c0,0.4-0.3,0.9-0.8,1.4c-0.4,0.5-1,0.9-1.7,1.1
				c-4,1.8-9.6,3.9-16.7,6.3c-0.4,2-0.6,4.1-0.6,6.3c0,1,0,1.7,0.1,2.2c0.1,1.8,0.4,3.4,1.1,4.7c0.2,0.4,0.5,0.9,0.9,1.3
				s0.7,0.7,0.9,0.8c0.1,0.1,0.3,0.1,0.6,0.1s0.6-0.1,1-0.2c0.4-0.2,0.8-0.4,1.3-0.7c1.2-0.7,2.2-1.5,3.2-2.3c1-0.9,2.2-2,3.6-3.4
				c0.6-0.6,1.5-0.8,2.8-0.8c0.7,0,1.3,0.1,1.8,0.3c0.5,0.2,0.8,0.5,0.8,0.9s-0.2,0.8-0.6,1.2c-2.5,2.7-5,5-7.6,6.8
				c-2.6,1.9-5.2,2.8-7.8,2.8c-1.2,0-2.4-0.3-3.5-0.8c-1.8-0.8-3.1-2.2-3.9-4c-0.8-1.8-1.2-4-1.2-6.5c0-1.8,0.2-4,0.7-6.5l-0.5,0.1
				l-0.5,0.2c-0.6,0.2-1.1,0.3-1.4,0.3c-0.6,0-1-0.1-1.3-0.4s-0.5-0.6-0.5-1.1s0.2-1,0.6-1.5c0.4-0.5,1-0.9,1.9-1.2l2.9-1.1
				c0.4-1.1,0.9-2.6,1.6-4.4c1.1-2.5,2.5-4.6,4.2-6.4s3.7-3,5.9-3.5C181.4,48.7,182.1,48.6,182.8,48.6z M175.6,60.6
				c3.9-1.5,7.5-2.7,10.6-3.7c-1.3-1.8-2.7-3.1-4-3.7c-0.3-0.1-0.6-0.2-0.8-0.2c-0.3,0-0.4-0.1-0.4-0.1s0,0.1-0.1,0.1
				s-0.2,0.1-0.3,0.1C178.5,54.6,176.8,57.2,175.6,60.6z"/>
		</g>
	</g>
	<g id="_x36_bHetl.tif">
	</g>
</g>
</svg>
